<svg width="16" height="16" viewBox="0 0 16 16" fill="none" xmlns="http://www.w3.org/2000/svg">
<g id="icon/16px/account" clip-path="url(#clip0_1435_10762)">
<path id="Vector" d="M8.00298 0.000347708C6.38264 0.000196848 4.80046 0.492015 3.46558 1.4107C2.1307 2.32934 1.10627 3.6315 0.527705 5.14505C-0.0510175 6.6586 -0.156496 8.31211 0.224911 9.88676C0.606461 11.4615 1.45705 12.8835 2.66417 13.9642C2.86271 14.1429 3.07075 14.3109 3.28727 14.4671C4.6561 15.4647 6.30633 16.0021 8.00001 16.0021C9.69381 16.0021 11.3439 15.4647 12.7128 14.4671C12.9294 14.3108 13.1373 14.1429 13.3357 13.9642C14.5425 12.8836 15.393 11.4623 15.7747 9.88792C16.1564 8.31373 16.0513 6.66064 15.4734 5.14737C14.8954 3.63397 13.8719 2.33185 12.538 1.41274C11.204 0.493637 9.62264 0.00104281 8.00257 0L8.00298 0.000347708ZM8.00298 2.85827V2.85843C8.60947 2.85843 9.19094 3.09922 9.61969 3.52799C10.0485 3.95678 10.2894 4.53836 10.2894 5.1447C10.2894 5.75104 10.0485 6.33265 9.61969 6.76141C9.1909 7.1902 8.60947 7.43112 8.00298 7.43112C7.39664 7.43112 6.81502 7.19018 6.38627 6.76141C5.95748 6.33262 5.71671 5.75104 5.71671 5.1447C5.71671 4.53836 5.9575 3.95674 6.38627 3.52799C6.81506 3.0992 7.39664 2.85843 8.00298 2.85843V2.85827ZM8.00298 14.2902C6.12723 14.2895 4.34966 13.4509 3.15583 12.0039C3.62683 10.6503 4.64114 9.55472 5.95447 8.98083C7.2678 8.40693 8.76095 8.40693 10.074 8.98083C11.3873 9.55472 12.4016 10.6504 12.8728 12.0039C11.674 13.4571 9.88661 14.2963 8.00283 14.2902H8.00298Z" fill="white"/>
</g>
<defs>
<clipPath id="clip0_1435_10762">
<rect width="16" height="16" fill="white"/>
</clipPath>
</defs>
</svg>
